# File created by Blade
# Date/Time:  Wed Jan 28 15:39:58 2015
#---------------------------------------------------------
:version 1.10
:name HOM
:units
  mass 1.0
  length 1.000000
  angle deg
:documentation
     Acclaim Skeleton File
:root
   axis xyz
   order TX TY TZ RX RY RZ
   position 0.000000 0.000000 0.000000
   orientation 0 0 0
:bonedata
   begin
      id 1
      name Spine_dum
      direction 0.000000 1.000000 0.000000
      length 6.864287
      axis 0.0 0.0 0.0 xyz
   end
   begin
      id 2
      name LeftUpLeg_dum
      direction 1.000000 0.000000 0.000000
      length 4.117376
      axis 0.0 0.0 0.0 xyz
   end
   begin
      id 3
      name RightUpLeg_dum
      direction -1.000000 0.000000 0.000000
      length 4.117376
      axis 0.0 0.0 0.0 xyz
   end
   begin
      id 4
      name Spine
      direction 0.000000 1.000000 0.000000
      length 0.000000
      axis 0.0 0.0 0.0 xyz
      dof rx ry rz
   end
   begin
      id 5
      name Spine_dum1
      direction 0.000000 1.000000 0.000000
      length 15.393827
      axis 0.0 0.0 0.0 xyz
   end
   begin
      id 6
      name Spine_dum2
      direction 0.000000 1.000000 0.000000
      length 9.314826
      axis 0.0 0.0 0.0 xyz
   end
   begin
      id 7
      name Spine_dum3
      direction 0.000000 1.000000 0.000000
      length 9.314826
      axis 0.0 0.0 0.0 xyz
   end
   begin
      id 8
      name Head
      direction 0.000000 1.000000 0.000000
      length 4.527550
      axis 0.0 0.0 0.0 xyz
      dof rx ry rz
   end
   begin
      id 9
      name LeftShoulder
      direction 1.000000 0.000000 0.000000
      length 8.275398
      axis 0.0 0.0 -90.0 xyz
      dof rx ry rz
   end
   begin
      id 10
      name LeftArm
      direction 1.000000 0.000000 0.000000
      length 12.002200
      axis 0.0 0.0 -90.0 xyz
      dof rx ry rz
   end
   begin
      id 11
      name LeftForeArm
      direction 1.000000 0.000000 0.000000
      length 10.144633
      axis 0.0 0.0 -90.0 xyz
      dof ry rz rx
   end
   begin
      id 12
      name LeftHand
      direction 0.000000 0.000000 0.000000
      length 0.000000
      axis 0.0 0.0 -90.0 xyz
      dof rx ry rz
   end
   begin
      id 13
      name LeftHand_dum1
      direction 0.000000 0.000000 0.000000
      length 0.000000
      axis 0.0 0.0 -90.0 xyz
   end
   begin
      id 14
      name LeftHand_dum2
      direction 1.000000 0.000000 0.000000
      length 3.937000
      axis 0.0 0.0 -90.0 xyz
   end
   begin
      id 15
      name LeftHandThumb1
      direction 0.000000 0.000000 1.000000
      length 3.937000
      axis 0.0 0.0 -90.0 xyz
      dof rx rz ry
   end
   begin
      id 16
      name RightShoulder
      direction -1.000000 0.000000 0.000000
      length 8.275398
      axis 0.0 0.0 90.0 xyz
      dof rx ry rz
   end
   begin
      id 17
      name RightArm
      direction -1.000000 0.000000 0.000000
      length 12.002200
      axis 0.0 0.0 90.0 xyz
      dof rx ry rz
   end
   begin
      id 18
      name RightForeArm
      direction -1.000000 0.000000 0.000000
      length 10.144633
      axis 0.0 0.0 90.0 xyz
      dof ry rz rx
   end
   begin
      id 19
      name RightHand
      direction 0.000000 0.000000 0.000000
      length 0.000000
      axis 0.0 0.0 90.0 xyz
      dof rx ry rz
   end
   begin
      id 20
      name RightHand_dum1
      direction 0.000000 0.000000 0.000000
      length 0.000000
      axis 0.0 0.0 90.0 xyz
   end
   begin
      id 21
      name RightHand_dum2
      direction -1.000000 0.000000 0.000000
      length 3.937000
      axis 0.0 0.0 90.0 xyz
   end
   begin
      id 22
      name RightHandThumb1
      direction 0.000000 0.000000 1.000000
      length 3.937000
      axis 0.0 0.0 90.0 xyz
      dof rx rz ry
   end
   begin
      id 23
      name LeftUpLeg
      direction 0.000000 -1.000000 0.000000
      length 19.394322
      axis 0.0 0.0 0.0 xyz
      dof rx ry rz
   end
   begin
      id 24
      name LeftLeg
      direction 0.000000 -1.000000 0.000000
      length 17.609563
      axis 0.0 0.0 0.0 xyz
      dof rx ry rz
   end
   begin
      id 25
      name LeftFoot
      direction 0.000000 -0.258819 0.965926
      length 6.085393
      axis 15.0 0.0 0.0 xyz
      dof rx ry rz
   end
   begin
      id 26
      name LeftToeBase
      direction 0.000000 0.000000 1.000000
      length 2.952750
      axis 0.0 0.0 0.0 xyz
      dof rx ry rz
   end
   begin
      id 27
      name RightUpLeg
      direction 0.000000 -1.000000 0.000000
      length 19.394322
      axis 0.0 0.0 0.0 xyz
      dof rx ry rz
   end
   begin
      id 28
      name RightLeg
      direction 0.000000 -1.000000 0.000000
      length 17.609563
      axis 0.0 0.0 0.0 xyz
      dof rx ry rz
   end
   begin
      id 29
      name RightFoot
      direction 0.000000 -0.258819 0.965926
      length 6.085393
      axis 15.0 0.0 0.0 xyz
      dof rx ry rz
   end
   begin
      id 30
      name RightToeBase
      direction 0.000000 0.000000 1.000000
      length 2.952750
      axis 0.0 0.0 0.0 xyz
      dof rx ry rz
   end
:hierarchy
   begin
      root Spine_dum LeftUpLeg_dum RightUpLeg_dum
      Spine_dum Spine
      LeftUpLeg_dum LeftUpLeg
      RightUpLeg_dum RightUpLeg
      Spine Spine_dum1 Spine_dum2 Spine_dum3
      Spine_dum1 Head
      Spine_dum2 LeftShoulder
      Spine_dum3 RightShoulder
      LeftShoulder LeftArm
      LeftArm LeftForeArm
      LeftForeArm LeftHand
      LeftHand LeftHand_dum1 LeftHand_dum2
      LeftHand_dum1 LeftHandThumb1
      RightShoulder RightArm
      RightArm RightForeArm
      RightForeArm RightHand
      RightHand RightHand_dum1 RightHand_dum2
      RightHand_dum1 RightHandThumb1
      LeftUpLeg LeftLeg
      LeftLeg LeftFoot
      LeftFoot LeftToeBase
      RightUpLeg RightLeg
      RightLeg RightFoot
      RightFoot RightToeBase
   end

# File created by Blade
# Date/Time:  Wed Jan 28 15:40:07 2015
# Frame Rate: 120.000 fps
#------------------------------------------------------
:FULLY-SPECIFIED
:DEGREES
1384
root -8.714872 40.628287 -15.669059 22.870021 -45.122825 47.432435
Spine 13.114083 1.547201 24.848487
Head -43.218798 -34.015643 6.433301
LeftShoulder -20.383140 13.936860 -9.304044
LeftArm 4.600188 15.141832 -91.159740
LeftForeArm -15.404610 -0.000000 6.852863
LeftHand -2.391728 -0.000000 -10.269078
LeftHandThumb1 -26.253704 0.000000 33.147579
RightShoulder -17.954957 7.455661 -46.587881
RightArm 28.101182 85.902346 51.943215
RightForeArm 5.079092 -0.000000 102.575723
RightHand -13.294941 -0.000000 -39.716246
RightHandThumb1 -24.326973 -0.000000 -32.862282
LeftUpLeg -14.024032 2.677128 19.595579
LeftLeg 151.426915 -0.000000 -0.000000
LeftFoot 27.476162 -1.046214 -23.556204
LeftToeBase 4.124464 -0.000000 -0.000000
RightUpLeg -59.404848 -13.599798 -19.506393
RightLeg 19.065903 -0.000000 -0.000000
RightFoot -25.434756 -21.160340 14.129546
RightToeBase 9.248241 -0.000000 -0.000000
1385
root -8.724037 40.625891 -15.677370 22.927390 -45.082295 47.395665
Spine 13.081433 1.521077 24.821256
Head -43.261189 -34.043585 6.461225
LeftShoulder -20.384167 13.906133 -9.288906
LeftArm 4.617656 15.123097 -91.171109
LeftForeArm -15.380853 -0.000000 6.810456
LeftHand -2.309996 -0.000000 -10.321085
LeftHandThumb1 -26.253704 0.000000 33.147579
RightShoulder -17.953960 7.450025 -46.556960
RightArm 29.163625 85.884935 52.970751
RightForeArm 5.108332 -0.000000 102.498335
RightHand -13.284426 -0.000000 -39.612489
RightHandThumb1 -24.326973 -0.000000 -32.862282
LeftUpLeg -14.143820 2.681829 19.529380
LeftLeg 151.485883 -0.000000 -0.000000
LeftFoot 27.419117 -1.053253 -23.521351
LeftToeBase 4.175586 -0.000000 -0.000000
RightUpLeg -59.404671 -13.578262 -19.495083
RightLeg 19.048817 -0.000000 -0.000000
RightFoot -25.416702 -21.275975 14.051636
RightToeBase 9.211947 -0.000000 -0.000000
1386
root -8.733840 40.621306 -15.683519 23.000568 -45.102972 47.287572
Spine 13.113972 1.555933 24.833094
Head -43.283343 -34.055057 6.434788
LeftShoulder -20.348817 13.888488 -9.283468
LeftArm 4.617421 15.108186 -91.191825
LeftForeArm -15.420134 -0.000000 6.817443
LeftHand -2.293498 -0.000000 -10.348291
LeftHandThumb1 -26.253704 0.000000 33.147579
RightShoulder -17.953270 7.496311 -46.559457
RightArm 29.156813 85.817042 52.920427
RightForeArm 5.098096 -0.000000 102.421806
RightHand -13.324806 -0.000000 -39.681001
RightHandThumb1 -24.326973 -0.000000 -32.862282
LeftUpLeg -14.173599 2.715597 19.515470
LeftLeg 151.518824 -0.000000 -0.000000
LeftFoot 27.429096 -1.129258 -23.560019
LeftToeBase 4.189141 -0.000000 -0.000000
RightUpLeg -59.400524 -13.480684 -19.447376
RightLeg 19.030020 -0.000000 -0.000000
RightFoot -25.389228 -21.379879 13.997162
RightToeBase 9.207127 -0.000000 -0.000000
1387
root -8.742225 40.616833 -15.690004 23.070081 -45.107787 47.198075
Spine 13.128387 1.563075 24.828125
Head -43.296069 -34.039883 6.414158
LeftShoulder -20.337456 13.836843 -9.243595
LeftArm 4.560791 15.110327 -91.251231
LeftForeArm -15.375557 0.000000 6.840366
LeftHand -2.272152 -0.000000 -10.381393
LeftHandThumb1 -26.253704 0.000000 33.147579
RightShoulder -17.962908 7.504880 -46.540736
RightArm 29.763008 85.741570 53.488196
RightForeArm 5.073834 -0.000000 102.330684
RightHand -13.343062 -0.000000 -39.576896
RightHandThumb1 -24.326973 -0.000000 -32.862282
LeftUpLeg -14.223504 2.758385 19.493508
LeftLeg 151.549805 -0.000000 -0.000000
LeftFoot 27.452983 -1.136358 -23.635041
LeftToeBase 4.052868 -0.000000 -0.000000
RightUpLeg -59.388633 -13.383968 -19.433657
RightLeg 19.000631 -0.000000 -0.000000
RightFoot -25.358856 -21.513301 13.931576
RightToeBase 9.134031 -0.000000 -0.000000
1388
root -8.749652 40.611934 -15.697858 23.143321 -45.104129 47.125461
Spine 13.118283 1.567909 24.807435
Head -43.305163 -34.002483 6.405174
LeftShoulder -20.346367 13.832102 -9.227474
LeftArm 4.577494 15.175969 -91.265911
LeftForeArm -15.481786 -0.000000 6.852590
LeftHand -2.309164 -0.000000 -10.346141
LeftHandThumb1 -26.253704 0.000000 33.147579
RightShoulder -17.960762 7.534103 -46.526192
RightArm 29.959040 85.668135 53.651058
RightForeArm 5.037629 -0.000000 102.246526
RightHand -13.331963 0.000000 -39.555894
RightHandThumb1 -24.326973 -0.000000 -32.862282
LeftUpLeg -14.298131 2.812827 19.462374
LeftLeg 151.586302 -0.000000 -0.000000
LeftFoot 27.458564 -1.166362 -23.516749
LeftToeBase 3.903194 -0.000000 -0.000000
RightUpLeg -59.398864 -13.302440 -19.426660
RightLeg 18.986077 -0.000000 -0.000000
RightFoot -25.359829 -21.637360 13.905928
RightToeBase 9.079413 -0.000000 -0.000000
1389
root -8.757316 40.607143 -15.706803 23.198479 -45.099449 47.070750
Spine 13.115240 1.578450 24.769993
Head -43.318610 -33.986325 6.408409
LeftShoulder -20.334677 13.817139 -9.193315
LeftArm 4.570307 15.204926 -91.296211
LeftForeArm -15.584661 -0.000000 6.864723
LeftHand -2.319075 -0.000000 -10.340832
LeftHandThumb1 -26.253704 0.000000 33.147579
RightShoulder -17.979912 7.525131 -46.483395
RightArm 30.469227 85.585671 54.104156
RightForeArm 5.064909 -0.000000 102.167859
RightHand -13.294390 0.000000 -39.551557
RightHandThumb1 -24.326973 -0.000000 -32.862282
LeftUpLeg -14.371657 2.857984 19.421509
LeftLeg 151.607899 -0.000000 -0.000000
LeftFoot 27.500114 -1.113041 -23.577532
LeftToeBase 3.853708 -0.000000 -0.000000
RightUpLeg -59.401477 -13.221790 -19.436166
RightLeg 18.975057 -0.000000 -0.000000
RightFoot -25.343588 -21.774635 13.852701
RightToeBase 9.006072 -0.000000 -0.000000
1390
root -8.766160 40.602559 -15.715469 23.268769 -45.072388 46.987110
Spine 13.120592 1.579703 24.773081
Head -43.358991 -33.978071 6.421541
LeftShoulder -20.323196 13.848455 -9.194465
LeftArm 4.613865 15.252234 -91.311804
LeftForeArm -15.761387 0.000000 6.888218
LeftHand -2.310338 -0.000000 -10.283284
LeftHandThumb1 -26.253704 0.000000 33.147579
RightShoulder -18.012445 7.487123 -46.464713
RightArm 31.429072 85.516588 55.039446
RightForeArm 5.026123 -0.000000 102.128421
RightHand -13.407657 -0.000000 -39.623475
RightHandThumb1 -24.326973 -0.000000 -32.862282
LeftUpLeg -14.429059 2.853123 19.425365
LeftLeg 151.637452 -0.000000 -0.000000
LeftFoot 27.506421 -1.174395 -23.646003
LeftToeBase 3.864205 -0.000000 -0.000000
RightUpLeg -59.375527 -13.139390 -19.436591
RightLeg 18.943084 -0.000000 -0.000000
RightFoot -25.369708 -21.888484 13.874231
RightToeBase 9.010854 -0.000000 -0.000000
1391
root -8.773885 40.598089 -15.724507 23.293704 -45.048576 46.953267
Spine 13.132900 1.569879 24.734499
Head -43.395086 -33.997142 6.448449
LeftShoulder -20.296228 13.835882 -9.174391
LeftArm 4.622711 15.280178 -91.320832
LeftForeArm -15.814260 -0.000000 6.894297
LeftHand -2.340580 -0.000000 -10.326892
LeftHandThumb1 -26.253704 0.000000 33.147579
RightShoulder -18.023401 7.496694 -46.454840
RightArm 30.762335 85.436315 54.360296
RightForeArm 5.093042 0.000000 102.087035
RightHand -13.253655 0.000000 -39.589140
RightHandThumb1 -24.326973 -0.000000 -32.862282
LeftUpLeg -14.483746 2.871170 19.385888
LeftLeg 151.660667 -0.000000 -0.000000
LeftFoot 27.454629 -1.162754 -23.701151
LeftToeBase 3.995517 -0.000000 -0.000000
RightUpLeg -59.358284 -13.064601 -19.474897
RightLeg 18.951074 -0.000000 -0.000000
RightFoot -25.399731 -22.012417 13.884281
RightToeBase 8.996490 -0.000000 -0.000000
1392
root -8.782122 40.593603 -15.734425 23.340904 -45.017283 46.876157
Spine 13.170627 1.551993 24.731188
Head -43.465237 -33.994122 6.496066
LeftShoulder -20.294899 13.842005 -9.177834
LeftArm 4.666592 15.366082 -91.318940
LeftForeArm -15.869976 -0.000000 6.893356
LeftHand -2.315261 0.000000 -10.308347
LeftHandThumb1 -26.253704 0.000000 33.147579
RightShoulder -18.037740 7.489599 -46.456414
RightArm 30.077686 85.367474 53.705903
RightForeArm 5.093144 -0.000000 102.077005
RightHand -13.256684 0.000000 -39.525462
RightHandThumb1 -24.326973 -0.000000 -32.862282
LeftUpLeg -14.527583 2.871735 19.390353
LeftLeg 151.672916 -0.000000 -0.000000
LeftFoot 27.479786 -1.168178 -23.735790
LeftToeBase 3.912760 -0.000000 -0.000000
RightUpLeg -59.319211 -12.980394 -19.480934
RightLeg 18.926651 -0.000000 -0.000000
RightFoot -25.391257 -22.159530 13.822251
RightToeBase 8.934664 -0.000000 -0.000000
1393
root -8.789465 40.589220 -15.743170 23.364718 -44.970356 46.826278
Spine 13.199528 1.518003 24.714286
Head -43.521926 -33.973737 6.546579
LeftShoulder -20.294125 13.849399 -9.192044
LeftArm 4.712389 15.417303 -91.301386
LeftForeArm -15.929481 -0.000000 6.909125
LeftHand -2.352913 0.000000 -10.293280
LeftHandThumb1 -26.253704 0.000000 33.147579
RightShoulder -18.030541 7.487126 -46.468638
RightArm 28.683247 85.306550 52.352998
RightForeArm 5.129552 0.000000 102.065914
RightHand -13.218968 -0.000000 -39.507469
RightHandThumb1 -24.326973 -0.000000 -32.862282
LeftUpLeg -14.568259 2.858737 19.387012
LeftLeg 151.689586 -0.000000 -0.000000
LeftFoot 27.503959 -1.210533 -23.713971
LeftToeBase 3.763729 -0.000000 -0.000000
RightUpLeg -59.266748 -12.903279 -19.525015
RightLeg 18.916850 -0.000000 -0.000000
RightFoot -25.419039 -22.294729 13.824350
RightToeBase 8.938420 -0.000000 -0.000000
1394
root -8.796117 40.585859 -15.752684 23.393327 -44.922650 46.783996
Spine 13.221439 1.503398 24.687041
Head -43.576975 -33.950549 6.633818
LeftShoulder -20.290109 13.838759 -9.188918
LeftArm 4.741678 15.449982 -91.286916
LeftForeArm -15.957210 -0.000000 6.895953
LeftHand -2.329919 -0.000000 -10.305489
LeftHandThumb1 -26.253704 0.000000 33.147579
RightShoulder -18.016468 7.474857 -46.468473
RightArm 26.802779 85.275392 50.513562
RightForeArm 5.224015 -0.000000 102.074976
RightHand -13.291076 -0.000000 -39.532959
RightHandThumb1 -24.326973 -0.000000 -32.862282
LeftUpLeg -14.615874 2.848006 19.384246
LeftLeg 151.706590 -0.000000 -0.000000
LeftFoot 27.514741 -1.237549 -23.699034
LeftToeBase 3.826155 -0.000000 -0.000000
RightUpLeg -59.246866 -12.867848 -19.533784
RightLeg 18.935192 -0.000000 -0.000000
RightFoot -25.450184 -22.355177 13.835280
RightToeBase 8.949616 -0.000000 -0.000000
